<svg xmlns="http://www.w3.org/2000/svg" version="1.1" xmlns:xlink="http://www.w3.org/1999/xlink" xmlns:svgjs="http://svgjs.dev/svgjs" width="128" height="128" viewBox="0 0 128 128"><g transform="matrix(0.8046875,0,0,0.8046875,12.333870967741937,12.333870967741937)"><svg viewBox="0 0 155 155" data-background-color="#0a1627" preserveAspectRatio="xMidYMid meet" height="128" width="128" xmlns="http://www.w3.org/2000/svg" xmlns:xlink="http://www.w3.org/1999/xlink"><g id="tight-bounds" transform="matrix(1,0,0,1,0.25,0.25)"><svg viewBox="0 0 154.5 154.5" height="154.5" width="154.5"><g><svg></svg></g><g><svg viewBox="0 0 154.5 154.5" height="154.5" width="154.5"><g transform="matrix(1,0,0,1,29.509499999999996,58.07995984533016)"><svg viewBox="0 0 95.48100000000001 38.34008030933968" height="38.34008030933968" width="95.48100000000001"><g><svg viewBox="0 0 95.48100000000001 38.34008030933968" height="38.34008030933968" width="95.48100000000001"><g><svg viewBox="0 0 95.48100000000001 38.34008030933968" height="38.34008030933968" width="95.48100000000001"><g><svg viewBox="0 0 95.48100000000001 38.34008030933968" height="38.34008030933968" width="95.48100000000001"><g><svg viewBox="0 0 95.48100000000001 38.34008030933968" height="38.34008030933968" width="95.48100000000001"><g transform="matrix(1,0,0,1,0,0)"><svg width="95.48100000000001" viewBox="1 -33.05 84.05 33.75" height="38.34008030933968" data-palette-color="#df0d3d"><path d="M23.35 0L7.9 0 7.9-1.05 9.9-1.45Q12-1.9 12-3.9L12-3.9 12-17.55Q12-21.05 12-24.55 12-28.05 11.95-31.55L11.95-31.55 8-31.55Q6.4-31.55 5.65-30.7 4.9-29.85 4.15-28.3L4.15-28.3 2.4-24.6 1-24.6 1.25-33.05 29.95-33.05 30.2-24.6 28.8-24.6 27.05-28.3Q26.3-29.85 25.55-30.7 24.8-31.55 23.2-31.55L23.2-31.55 19.2-31.55 19.2-3.9Q19.2-1.85 21.3-1.45L21.3-1.45 23.35-1.05 23.35 0ZM41.2 0.7L41.2 0.7Q39.25 0.7 37.65-0.03 36.05-0.75 35.12-2.43 34.2-4.1 34.25-6.85L34.25-6.85 34.4-19.4Q34.4-20.5 34.05-21 33.7-21.5 32.8-21.7L32.8-21.7 32.2-21.9 32.2-22.8 40.75-24.45 41.3-23.9 41.05-16.85 41.05-5.5Q41.05-3.8 41.97-3.03 42.9-2.25 44.3-2.25L44.3-2.25Q45.75-2.25 46.92-2.68 48.1-3.1 49.35-3.95L49.35-3.95 49.5-19.35Q49.5-20.5 49.17-20.95 48.85-21.4 47.95-21.65L47.95-21.65 47.4-21.8 47.4-22.7 55.75-24.45 56.3-23.9 56.15-16.85 56.15-3.75Q56.15-2.7 56.42-2.08 56.7-1.45 57.65-1.15L57.65-1.15 58.3-0.95 58.3 0 49.85 0.5 49.4-2.65Q47.7-1.2 45.7-0.25 43.7 0.7 41.2 0.7ZM84.55 0L60.45 0 60.45-1.05 61.45-1.35Q62.5-1.7 62.8-2.27 63.09-2.85 63.09-3.9L63.09-3.9 63.09-29.2Q63.09-30.2 62.8-30.78 62.5-31.35 61.5-31.7L61.5-31.7 60.45-32 60.45-33.05 72.84-33.05 72.84-32 71.9-31.7Q70.95-31.35 70.62-30.75 70.3-30.15 70.3-29.1L70.3-29.1 70.3-1.5 77.65-1.5Q79.34-1.5 80.2-2.35 81.05-3.2 81.8-4.8L81.8-4.8 83.65-8.95 85.05-8.95 84.55 0Z" opacity="1" transform="matrix(1,0,0,1,0,0)" fill="#df0d3d" class="undefined-text-0" data-fill-palette-color="primary" id="text-0"></path></svg></g></svg></g></svg></g></svg></g></svg></g></svg></g><g><path d="M0 154.5v-154.5h154.5v154.5zM151.042 151.042v-147.584h-147.584v147.584z" fill="#fe0039" fill-rule="nonzero" stroke="none" stroke-width="1" stroke-linecap="butt" stroke-linejoin="miter" stroke-miterlimit="10" stroke-dasharray="" stroke-dashoffset="0" font-family="none" font-weight="none" font-size="none" text-anchor="none" style="mix-blend-mode: normal" data-fill-palette-color="tertiary"></path></g></svg></g><defs></defs></svg><rect width="154.5" height="154.5" fill="none" stroke="none" visibility="hidden"></rect></g></svg></g></svg>